<svg xmlns="http://www.w3.org/2000/svg" viewBox="0 0 24 24" width="24" height="24" role="img" aria-label="Гендер-пати: лента и искра">
  <defs>
    <linearGradient id="gr-blue" x1="0" y1="0" x2="1" y2="1">
      <stop offset="0%" stop-color="#cfe6ff"/>
      <stop offset="100%" stop-color="#6fb6ff"/>
    </linearGradient>
    <linearGradient id="gr-pink" x1="0" y1="0" x2="1" y2="1">
      <stop offset="0%" stop-color="#ffe2ec"/>
      <stop offset="100%" stop-color="#ff8fb4"/>
    </linearGradient>
    <radialGradient id="gr-spark" cx="0.5" cy="0.5" r="0.5">
      <stop offset="0%" stop-color="#fff5d0"/>
      <stop offset="60%" stop-color="#ffd166"/>
      <stop offset="100%" stop-color="#e6a02b" stop-opacity="0"/>
    </radialGradient>
  </defs>
  <path d="M4 7 Q9 4 12 8 Q15 12 20 8 Q19 14 14 13 Q10 13 8 16 Q5 13 4 7 Z" fill="url(#gr-blue)"/>
  <path d="M20 7 Q15 4 12 8 Q9 12 4 8 Q5 14 10 13 Q14 13 16 16 Q19 13 20 7 Z" fill="url(#gr-pink)" style="mix-blend-mode:multiply" opacity="0.85"/>
  <circle cx="12" cy="10.5" r="3" fill="url(#gr-spark)"/>
  <circle cx="12" cy="10.5" r="1" fill="#fff5d0"/>
</svg>
