<svg xmlns="http://www.w3.org/2000/svg" viewBox="0 0 64 64" width="64" height="64">
  <defs>
    <linearGradient id="fg" x1="0" y1="0" x2="1" y2="1">
      <stop offset="0%" stop-color="#ff6b35"/><stop offset="100%" stop-color="#ffd166"/>
    </linearGradient>
    <linearGradient id="fb" x1="0" y1="0" x2="1" y2="1">
      <stop offset="0%" stop-color="#cfe6ff"/><stop offset="100%" stop-color="#6fb6ff"/>
    </linearGradient>
    <linearGradient id="fp" x1="0" y1="0" x2="1" y2="1">
      <stop offset="0%" stop-color="#ffe2ec"/><stop offset="100%" stop-color="#ff8fb4"/>
    </linearGradient>
  </defs>
  <rect width="64" height="64" rx="16" fill="#0a0a0f"/>
  <path d="M14 22 Q24 16 32 24 Q40 32 50 24 Q47 38 36 35 Q28 33 22 42 Q16 33 14 22 Z" fill="url(#fb)" opacity="0.9"/>
  <path d="M50 22 Q40 16 32 24 Q24 32 14 24 Q17 38 28 35 Q36 33 42 42 Q48 33 50 22 Z" fill="url(#fp)" opacity="0.85" style="mix-blend-mode:screen"/>
  <circle cx="32" cy="28" r="6" fill="url(#fg)"/>
  <circle cx="32" cy="28" r="2" fill="#fff5d0"/>
</svg>
